<?xml version="1.0" encoding="iso-8859-1"?>
<!-- Generator: Adobe Illustrator 19.0.0, SVG Export Plug-In . SVG Version: 6.00 Build 0)  -->
<svg version="1.1" id="Capa_1" xmlns="http://www.w3.org/2000/svg" xmlns:xlink="http://www.w3.org/1999/xlink" x="0px" y="0px"
	 viewBox="0 0 512 512" style="enable-background:new 0 0 512 512;" xml:space="preserve">
<rect x="219.26" y="329" style="fill:#57555C;" width="73.48" height="183"/>
<rect x="256" y="329" style="fill:#3C3A41;" width="36.74" height="183"/>
<path style="fill:#78777F;" d="M365.4,73.88v211.24c0,40.74-33.14,73.88-73.88,73.88h-71.04c-40.74,0-73.88-33.14-73.88-73.88V73.88
	C146.6,33.14,179.74,0,220.48,0h71.04C332.26,0,365.4,33.14,365.4,73.88z"/>
<path style="fill:#57555C;" d="M365.4,73.88v211.24c0,40.74-33.14,73.88-73.88,73.88H256V0h35.52C332.26,0,365.4,33.14,365.4,73.88z
	"/>
<path style="fill:#FC025C;" d="M256,47c-33.93,0-61.54,27.61-61.54,61.54c0,33.94,27.61,61.54,61.54,61.54s61.54-27.6,61.54-61.54
	C317.54,74.61,289.93,47,256,47z"/>
<path style="fill:#00C435;" d="M256,188.92c-33.93,0-61.54,27.6-61.54,61.54c0,33.93,27.61,61.54,61.54,61.54
	s61.54-27.61,61.54-61.54C317.54,216.52,289.93,188.92,256,188.92z"/>
<path style="fill:#00AD45;" d="M256,188.92c0,16.262,0,108.927,0,123.08c33.93,0,61.54-27.61,61.54-61.54
	C317.54,216.52,289.93,188.92,256,188.92z"/>
<path style="fill:#CD0045;" d="M256,47c0,16.262,0,108.927,0,123.08c33.93,0,61.54-27.6,61.54-61.54C317.54,74.61,289.93,47,256,47z
	"/>
<g>
</g>
<g>
</g>
<g>
</g>
<g>
</g>
<g>
</g>
<g>
</g>
<g>
</g>
<g>
</g>
<g>
</g>
<g>
</g>
<g>
</g>
<g>
</g>
<g>
</g>
<g>
</g>
<g>
</g>
</svg>
